<?xml version="1.0" encoding="utf-8"?>
<!-- Svg Vector Icons : http://www.onlinewebfonts.com/icon -->
<!DOCTYPE svg PUBLIC "-//W3C//DTD SVG 1.1//EN" "http://www.w3.org/Graphics/SVG/1.1/DTD/svg11.dtd">
<svg version="1.1" xmlns="http://www.w3.org/2000/svg" xmlns:xlink="http://www.w3.org/1999/xlink" x="0px" y="0px" viewBox="0 0 1000 1000" enable-background="new 0 0 1000 1000" xml:space="preserve">
<metadata> Svg Vector Icons : http://www.onlinewebfonts.com/icon </metadata>
<g><path d="M908.3,10c45.1,0,81.7,36.6,81.7,81.7l0,0c0,45.1-36.6,81.7-81.7,81.7H91.7c-45.1,0-81.7-36.6-81.7-81.7l0,0C10,46.6,46.6,10,91.7,10H908.3z M908.3,418.3c45.1,0,81.7,36.6,81.7,81.7l0,0c0,45.1-36.6,81.7-81.7,81.7H91.7C46.6,581.7,10,545.1,10,500l0,0c0-45.1,36.6-81.7,81.7-81.7H908.3z M908.3,826.7c45.1,0,81.7,36.6,81.7,81.7l0,0c0,45.1-36.6,81.7-81.7,81.7H91.7C46.6,990,10,953.4,10,908.3l0,0c0-45.1,36.6-81.7,81.7-81.7H908.3z"/></g>
</svg>