<svg width="65" height="69" viewBox="0 0 65 69" fill="none" xmlns="http://www.w3.org/2000/svg">
<path d="M57.8 48.3H55.9991C54.7362 48.3011 53.4907 48.5951 52.3605 49.159C50.7162 49.9764 48.7839 49.9764 47.1395 49.159C46.4836 48.8372 45.7874 48.605 45.0695 48.469L47.3109 31.05H49.75C50.3851 31.05 50.9 30.5351 50.9 29.9V25.3C50.9 24.6649 50.3851 24.15 49.75 24.15H45.15V20.7C45.15 20.395 45.0287 20.1026 44.8131 19.8869L39.4 14.4739V10.902L41.1434 9.5082L44.1208 15.464L46.1793 14.436L42.98 8.0385L44.4025 6.9H48.6C49.2351 6.9 49.75 6.38509 49.75 5.75V1.15C49.75 0.514912 49.2351 0 48.6 0H37.1C31.3868 0.0069 26.7569 4.6368 26.75 10.35C26.75 10.9851 27.265 11.5 27.9 11.5H30.2V14.4739L27.087 17.587C26.8714 17.8026 26.75 18.095 26.75 18.4V24.15H24.45V14.95C24.4483 14.8075 24.4199 14.6668 24.3661 14.5348C24.3451 14.4901 24.3212 14.4467 24.2948 14.4049C24.2672 14.3447 24.2349 14.2866 24.1982 14.2312L19.85 8.7975V1.15C19.85 0.514912 19.3351 0 18.7 0H11.8C11.165 0 10.65 0.514912 10.65 1.15V8.7975L6.3019 14.2312C6.26524 14.2866 6.2329 14.3447 6.2053 14.4049C6.17885 14.4467 6.15499 14.4901 6.134 14.5348C6.08024 14.6668 6.05177 14.8075 6.05005 14.95V24.15H1.45005C0.814961 24.15 0.300049 24.6649 0.300049 25.3V29.9C0.300049 30.5351 0.814961 31.05 1.45005 31.05H3.8892L8.35925 65.6972C8.43328 66.2708 8.92174 66.7001 9.50005 66.7H36.571C37.8753 68.1619 39.7409 68.9986 41.7 69H43.5009C44.7639 68.9988 46.0094 68.7049 47.1395 68.1409C48.7839 67.3236 50.7162 67.3236 52.3605 68.1409C53.4907 68.7049 54.7362 68.9988 55.9991 69H57.8C61.6093 68.9963 64.6963 65.9092 64.7 62.1V55.2C64.6963 51.3908 61.6093 48.3037 57.8 48.3ZM45.15 2.3H47.45V4.6H45.15V2.3ZM48.6 26.45V28.75H32.5V26.45H48.6ZM29.1317 9.2C29.7086 5.24184 33.1001 2.30503 37.1 2.3H42.85V5.198L37.8464 9.2H29.1317ZM37.1 11.5V13.8H32.5V11.5H37.1ZM29.05 18.8761L31.8261 16.1H37.7739L42.85 21.1761V24.15H29.05V18.8761ZM27.9 26.45H30.2V34.5C30.1976 34.938 30.4443 35.3392 30.836 35.535L37.736 38.985C38.0725 39.1509 38.3275 39.4457 38.4432 39.8027C38.5624 40.1857 38.521 40.6007 38.3282 40.9526C37.9973 41.6166 37.1909 41.8866 36.5269 41.5555C36.5259 41.5551 36.5249 41.5545 36.5239 41.5541L31.8549 39.2196C31.2842 38.9407 30.5956 39.1773 30.3168 39.748C30.2404 39.9044 30.2005 40.0761 30.2 40.25V51.75C30.2 53.0203 29.1704 54.05 27.9 54.05V43.7H25.6V54.05H23.3V43.7H21V54.05H18.7V43.7H16.4V54.05C15.1297 54.05 14.1 53.0203 14.1 51.75V26.45H27.9ZM12.95 2.3H17.55V8.05H12.95V2.3ZM12.352 10.35H18.148L20.908 13.8H9.59205L12.352 10.35ZM8.35005 16.1H22.15V24.15H8.35005V16.1ZM2.60005 28.75V26.45H11.8V28.75H2.60005ZM34.8 55.2V62.1C34.8021 62.884 34.9382 63.6618 35.2025 64.4H10.5109L6.2076 31.05H11.8V51.75C11.8 54.2905 13.8596 56.35 16.4 56.35H27.9C30.4405 56.35 32.5 54.2905 32.5 51.75V42.1107L35.5038 43.6126C37.319 44.5084 39.5166 43.7632 40.4125 41.9481C40.4162 41.9406 40.4198 41.933 40.4235 41.9255C40.869 41.0425 40.9448 40.0183 40.634 39.0793C40.3275 38.1399 39.6562 37.3634 38.771 36.9242L32.5 33.7893V31.05H44.9925L42.7661 48.3H41.7C37.8908 48.3037 34.8038 51.3908 34.8 55.2ZM62.4 62.1C62.4 64.6405 60.3405 66.7 57.8 66.7H55.9991C55.0934 66.6987 54.2003 66.4878 53.3898 66.0836C51.097 64.9444 48.4031 64.9444 46.1103 66.0836C45.2998 66.4878 44.4067 66.6987 43.5009 66.7H41.7C39.1595 66.7 37.1 64.6405 37.1 62.1V60.329C38.3612 61.4685 40.0003 62.0996 41.7 62.1H43.5009C44.7639 62.0989 46.0094 61.8049 47.1395 61.2409C48.7839 60.4236 50.7162 60.4236 52.3605 61.2409C53.4907 61.8049 54.7362 62.0989 55.9991 62.1H57.8C59.4997 62.0996 61.1389 61.4685 62.4 60.329V62.1ZM57.8 59.8H55.9991C55.0934 59.7987 54.2003 59.5878 53.3898 59.1836C51.097 58.0444 48.4031 58.0444 46.1103 59.1836C45.2998 59.5878 44.4067 59.7987 43.5009 59.8H41.7C39.1595 59.8 37.1 57.7405 37.1 55.2C37.1 52.6595 39.1595 50.6 41.7 50.6H43.5009C44.4067 50.6013 45.2998 50.8122 46.1103 51.2164C48.4032 52.3549 51.0968 52.3549 53.3898 51.2164C54.2003 50.8122 55.0934 50.6013 55.9991 50.6H57.8C60.3405 50.6 62.4 52.6595 62.4 55.2C62.4 57.7405 60.3405 59.8 57.8 59.8Z" fill="black"/>
</svg>
