<svg width="52" height="44" viewBox="0 0 52 44" fill="none" xmlns="http://www.w3.org/2000/svg">
<path d="M16.6429 19.967C15.3622 19.5982 14.0815 19.4111 12.8356 19.4111C10.9118 19.4111 9.30655 19.8508 8.06181 20.3891C9.26182 15.996 12.1446 8.4157 17.8871 7.56205C18.4189 7.48296 18.8548 7.09841 18.9999 6.58077L20.2549 2.09161C20.3608 1.71197 20.298 1.3056 20.0815 0.976143C19.8649 0.646684 19.5169 0.426862 19.1269 0.373407C18.7031 0.315588 18.2711 0.286133 17.8429 0.286133C10.95 0.286133 4.12362 7.48078 1.24306 17.7824C-0.447851 23.8261 -0.943671 32.9124 3.22143 38.6316C5.55217 41.8318 8.95255 43.5407 13.3282 43.7115C13.3462 43.712 13.3637 43.7126 13.3817 43.7126C18.7806 43.7126 23.568 40.0765 25.0244 34.8712C25.8944 31.7593 25.5011 28.4958 23.916 25.6796C22.3479 22.895 19.7651 20.8653 16.6429 19.967Z" fill="#DCDCDC"/>
<path d="M50.4389 25.6801C48.8707 22.895 46.288 20.8653 43.1658 19.967C41.885 19.5982 40.6043 19.4111 39.359 19.4111C37.4352 19.4111 35.8294 19.8508 34.5846 20.3891C35.7846 15.996 38.6674 8.4157 44.4105 7.56205C44.9423 7.48296 45.3776 7.09841 45.5232 6.58077L46.7783 2.09161C46.8841 1.71197 46.8214 1.3056 46.6049 0.976143C46.3889 0.646683 46.0409 0.426862 45.6503 0.373407C45.227 0.315588 44.795 0.286133 44.3663 0.286133C37.4734 0.286133 30.647 7.48078 27.7659 17.7824C26.0755 23.8261 25.5797 32.9124 29.7453 38.6327C32.0755 41.8323 35.4765 43.5418 39.8516 43.712C39.8696 43.7126 39.887 43.7131 39.9056 43.7131C45.304 43.7131 50.092 40.077 51.5483 34.8717C52.4172 31.7598 52.0234 28.4958 50.4389 25.6801Z" fill="#DCDCDC"/>
</svg>
