<svg
  width="47"
  height="45"
  viewBox="0 0 47 45"
  fill="none"
  xmlns="http://www.w3.org/2000/svg"
>
<path
    d="M14.1565 26.4544C13.9587 26.3845 13.7564 26.3112 13.5547 26.2348V23.0142C14.0616 23.1356 14.3637 23.3919 14.3906 23.4153C14.6673 23.6659 15.0948 23.6471 15.3484 23.3721C15.6034 23.0956 15.586 22.6647 15.3095 22.4097C15.2708 22.374 14.6201 21.7877 13.5547 21.6279V20.9702C13.5547 20.5941 13.2498 20.2891 12.8737 20.2891C12.4976 20.2891 12.1926 20.5941 12.1926 20.9702V21.6802C12.0916 21.7024 11.989 21.728 11.8842 21.7597C10.91 22.0532 10.182 22.887 9.98437 23.9357C9.80427 24.8918 10.1105 25.8138 10.7838 26.3419C11.1406 26.6217 11.5846 26.878 12.1927 27.1487V31.2323C11.6666 31.1936 11.3022 31.0652 10.7051 30.6745C10.3903 30.4685 9.96813 30.5568 9.76232 30.8716C9.55642 31.1863 9.64463 31.6084 9.95941 31.8143C10.83 32.3838 11.4249 32.5536 12.1927 32.5969V33.3334C12.1927 33.7095 12.4977 34.0144 12.8738 34.0144C13.2499 34.0144 13.5548 33.7095 13.5548 33.3334V32.5427C15.0828 32.2429 15.9753 30.983 16.1731 29.8061C16.4273 28.293 15.6359 26.9774 14.1565 26.4544ZM11.6242 25.2702C11.3527 25.0571 11.2371 24.6425 11.3228 24.1879C11.3995 23.7806 11.6684 23.2913 12.1925 23.0933V25.6334C11.9787 25.5174 11.7852 25.3964 11.6242 25.2702ZM14.8297 29.5803C14.7249 30.2038 14.2907 30.8647 13.5546 31.128V27.6858C13.6037 27.7034 13.6518 27.7208 13.7024 27.7387C14.961 28.1835 14.8835 29.2607 14.8297 29.5803Z"
    fill="white"
  />
<path
    d="M46.9625 25.578C46.8453 25.0458 46.4701 24.6159 45.9587 24.4279L44.0093 23.7114C43.6565 23.5817 43.265 23.7627 43.1352 24.1157C43.0055 24.4688 43.1864 24.8602 43.5395 24.9899L45.4888 25.7064C45.5903 25.7436 45.6222 25.8253 45.6321 25.8707C45.6421 25.916 45.6475 26.0035 45.5709 26.08L28.1704 43.4806C28.0937 43.5573 28.0061 43.5518 27.961 43.5419C27.9156 43.5319 27.834 43.5 27.7967 43.3984L25.3514 36.745C25.1902 36.3066 24.8463 35.9628 24.408 35.8017L17.7547 33.3564C17.6532 33.3191 17.6213 33.2375 17.6113 33.1921C17.6013 33.1468 17.596 33.0593 17.6725 32.9828L35.0732 15.5822C35.1498 15.5056 35.2371 15.511 35.2825 15.521C35.3278 15.531 35.4095 15.5628 35.4467 15.6643L37.892 22.3176C38.0531 22.7561 38.3971 23.0999 38.8355 23.261L40.5277 23.8829C40.8807 24.0128 41.2721 23.8317 41.4019 23.4786C41.5316 23.1256 41.3506 22.7342 40.9975 22.6045L39.3052 21.9824C39.2427 21.9595 39.1936 21.9104 39.1706 21.8478L36.7254 15.1945C36.5374 14.683 36.1075 14.3079 35.5753 14.1907C35.0434 14.0735 34.4955 14.2338 34.1101 14.6191L33.4513 15.2778V8.52099C33.4513 7.64479 32.7384 6.93189 31.8622 6.93189H24.9257C25.5603 5.69814 25.362 4.14329 24.3297 3.11103C23.4458 2.22721 22.1642 1.93686 21.0159 2.30404C20.5724 1.0176 19.3504 0.0904541 17.9153 0.0904541C16.4802 0.0904541 15.2583 1.01742 14.8147 2.30368C13.6665 1.93585 12.3862 2.22565 11.501 3.11094C10.8815 3.73029 10.5404 4.5538 10.5404 5.42982C10.5404 5.96114 10.6667 6.47291 10.9037 6.9318H10.3324C9.95629 6.9318 9.65134 7.23675 9.65134 7.61284C9.65134 7.98893 9.95629 8.29388 10.3324 8.29388H15.1857V14.7398C14.4322 14.6026 13.6652 14.5317 12.894 14.5317C11.4744 14.5317 10.1386 14.7529 8.86023 15.1786L3.74146 15.1788V8.5209C3.74146 8.39568 3.84326 8.29388 3.96847 8.29388H7.0735C7.44959 8.29388 7.75454 7.98893 7.75454 7.61284C7.75454 7.23675 7.44959 6.9318 7.0735 6.9318H3.96829C3.09209 6.9318 2.37919 7.64469 2.37919 8.5209V19.9573C2.37919 19.9614 2.37974 19.9655 2.37983 19.9697C0.881709 22.0761 0 24.6498 0 27.4255C0 30.1951 0.868582 32.8364 2.51184 35.0641C2.6454 35.2452 2.85149 35.3409 3.06042 35.3409C3.20087 35.3409 3.34251 35.2977 3.46414 35.2079C3.76688 34.9846 3.83123 34.5583 3.60789 34.2555C2.13859 32.2637 1.36199 29.9019 1.36199 27.4255C1.36199 21.0669 6.53511 15.8938 12.8937 15.8938C18.2234 15.8938 22.8051 19.4846 24.0856 24.6434L22.9326 25.7963C22.5877 23.6551 21.5671 21.683 19.9844 20.1417C18.0732 18.2808 15.555 17.2559 12.8937 17.2559C7.28619 17.2559 2.72407 21.8179 2.72407 27.4255C2.72407 33.033 7.2861 37.5951 12.8937 37.5951C15.2081 37.5951 17.4498 36.803 19.2508 35.3575L20.7106 35.894C18.5885 37.851 15.7924 38.9572 12.8937 38.9572C10.2628 38.9572 7.68762 38.0439 5.64257 36.3857C5.35047 36.1487 4.9216 36.1935 4.68467 36.4857C4.44774 36.7779 4.49254 37.2067 4.78473 37.4437C7.07157 39.2981 9.95142 40.3193 12.8937 40.3193C16.3654 40.3193 19.705 38.9012 22.1277 36.4148L23.9381 37.0802C24.0007 37.1032 24.0498 37.1523 24.0727 37.2149L26.518 43.8682C26.706 44.3797 27.1359 44.7549 27.6679 44.872C27.7827 44.8972 27.8982 44.9096 28.0126 44.9096C28.4288 44.9096 28.8309 44.746 29.1333 44.4437L46.534 27.0431C46.9193 26.6578 47.0795 26.1102 46.9625 25.578ZM3.74127 18.3531V16.5411H5.98901C5.17303 17.0606 4.41929 17.6691 3.74127 18.3531ZM32.0892 8.52099V15.1789H20.6448V8.29397H31.8621C31.9874 8.29397 32.0892 8.39587 32.0892 8.52099ZM23.3665 4.07416C24.114 4.82176 24.114 6.03816 23.3666 6.78557C23.3368 6.81549 23.2789 6.86506 23.1783 6.93189H19.8602C20.8487 5.07236 21.105 4.16247 21.1712 3.70532C21.9008 3.3486 22.7822 3.48988 23.3665 4.07416ZM17.9152 1.45254C18.9724 1.45254 19.8325 2.31267 19.8325 3.36981C19.8325 3.56662 19.7205 4.40124 18.3088 6.9318H17.5216C16.1102 4.40188 15.9979 3.56698 15.9979 3.36981C15.9979 2.31267 16.8579 1.45254 17.9152 1.45254ZM12.464 6.78566C12.1019 6.42352 11.9024 5.94205 11.9024 5.42991C11.9024 4.91778 12.1019 4.4363 12.464 4.07416C13.0493 3.48887 13.9294 3.34842 14.6592 3.70569C14.7255 4.16302 14.9816 5.07245 15.9702 6.93189H12.6522C12.5517 6.86515 12.4939 6.81558 12.464 6.78566ZM16.5476 8.29397H19.2828V15.1789H16.9246C16.9216 15.1789 16.9187 15.1793 16.9157 15.1794C16.7936 15.1392 16.6708 15.1014 16.5476 15.0648V8.29397ZM20.9524 17.3668C20.5819 17.0695 20.1957 16.7942 19.7966 16.5411H32.0892V16.6399L29.4528 19.2763H22.8761C22.3056 18.5774 21.6614 17.9359 20.9524 17.3668ZM23.8487 20.6384H28.0907L25.1882 23.5408C24.8645 22.5215 24.4128 21.5459 23.8487 20.6384ZM12.8938 36.2331C8.03728 36.2331 4.08634 32.2821 4.08634 27.4256C4.08634 22.5692 8.03737 18.6182 12.8938 18.6182C17.5691 18.6182 21.4874 22.3826 21.6922 27.0371L16.7094 32.0198C16.3241 32.4051 16.164 32.9528 16.2811 33.485C16.3982 34.0171 16.7735 34.447 17.2849 34.635L17.7142 34.7928C16.288 35.7277 14.614 36.2331 12.8938 36.2331Z"
    fill="white"
  />
<path
    d="M33.394 35.2691C33.4797 35.2691 33.5671 35.2527 33.6514 35.2182C33.9996 35.0759 34.1664 34.6783 34.0241 34.3301L30.1027 24.737C29.9605 24.3889 29.5629 24.2217 29.2146 24.3643C28.8664 24.5065 28.6995 24.9042 28.8419 25.2524L32.7632 34.8455C32.8711 35.1094 33.1255 35.2691 33.394 35.2691Z"
    fill="white"
  />
<path
    d="M25.2969 27.577C24.8197 28.0541 24.5864 28.7094 24.6398 29.422C24.6904 30.0961 24.9959 30.7452 25.5 31.2492C26.0041 31.7534 26.653 32.0589 27.3273 32.1093C27.3941 32.1144 27.4605 32.1169 27.5262 32.1169C28.1612 32.1169 28.7398 31.8846 29.1723 31.4523C29.6495 30.9751 29.8828 30.3199 29.8294 29.6072C29.7788 28.933 29.4733 28.2841 28.9692 27.7799C28.4651 27.2758 27.8162 26.9703 27.1419 26.9198C26.4288 26.8661 25.774 27.0998 25.2969 27.577ZM28.0061 28.7432C28.2798 29.0169 28.445 29.3599 28.4712 29.7091C28.4945 30.0199 28.4014 30.2969 28.2091 30.4892C28.0169 30.6814 27.7395 30.7742 27.4291 30.7512C27.0799 30.725 26.7368 30.5599 26.4631 30.2862C26.1894 30.0124 26.0242 29.6694 25.9981 29.3203C25.9747 29.0095 26.0678 28.7325 26.2601 28.5402C26.433 28.3673 26.6743 28.2747 26.9472 28.2747C26.9778 28.2747 27.0088 28.2759 27.0401 28.2782C27.3893 28.3043 27.7324 28.4694 28.0061 28.7432C28.006 28.7432 28.006 28.7432 28.0061 28.7432Z"
    fill="white"
  />
<path
    d="M35.976 32.907C36.6111 32.907 37.1897 32.6748 37.6221 32.2424C38.5785 31.286 38.4874 29.6386 37.4191 28.5701C37.4191 28.5701 37.4191 28.5701 37.419 28.5701C36.3507 27.5016 34.7033 27.4107 33.7468 28.367C32.7903 29.3235 32.8814 30.9708 33.9498 32.0393C34.454 32.5434 35.1029 32.8489 35.7771 32.8994C35.844 32.9045 35.9103 32.907 35.976 32.907ZM34.71 29.3302C34.8904 29.1499 35.135 29.0624 35.3981 29.0624C35.7553 29.0624 36.1464 29.2239 36.4559 29.5333C36.9932 30.0707 37.0843 30.854 36.6588 31.2794C36.4666 31.4715 36.1895 31.5646 35.8789 31.5414C35.5297 31.5152 35.1866 31.35 34.9129 31.0763C34.3757 30.5388 34.2846 29.7556 34.71 29.3302Z"
    fill="white"
  />
</svg>
