<svg width="14" height="14" viewBox="0 0 14 14" fill="none" xmlns="http://www.w3.org/2000/svg">
<path d="M12.8338 9.87002V11.62C12.8345 11.7825 12.8012 11.9433 12.7361 12.0921C12.671 12.241 12.5756 12.3746 12.4559 12.4844C12.3362 12.5943 12.1948 12.6779 12.0409 12.7299C11.887 12.782 11.724 12.8013 11.5622 12.7867C9.76714 12.5916 8.04291 11.9783 6.52799 10.9958C5.11856 10.1002 3.9236 8.90528 3.02799 7.49585C2.04214 5.97405 1.42863 4.24143 1.23716 2.43835C1.22258 2.27704 1.24175 2.11446 1.29345 1.96096C1.34515 1.80747 1.42824 1.66642 1.53744 1.54679C1.64663 1.42717 1.77954 1.3316 1.9277 1.26615C2.07586 1.20071 2.23602 1.16684 2.39799 1.16668H4.14799C4.43109 1.1639 4.70554 1.26415 4.92018 1.44874C5.13483 1.63334 5.27504 1.88969 5.31466 2.17002C5.38852 2.73005 5.5255 3.27994 5.72299 3.80918C5.80147 4.01797 5.81846 4.24488 5.77194 4.46303C5.72541 4.68118 5.61733 4.88141 5.46049 5.04002L4.71966 5.78085C5.55006 7.24125 6.75926 8.45044 8.21966 9.28085L8.96049 8.54002C9.11909 8.38318 9.31933 8.27509 9.53748 8.22857C9.75562 8.18205 9.98253 8.19903 10.1913 8.27752C10.7206 8.475 11.2705 8.61199 11.8305 8.68585C12.1139 8.72582 12.3726 8.86855 12.5576 9.08689C12.7426 9.30522 12.8409 9.58393 12.8338 9.87002Z" stroke="white" stroke-linecap="round" stroke-linejoin="round"/>
</svg>
